<svg width="32" height="32" viewBox="0 0 32 32" fill="none" xmlns="http://www.w3.org/2000/svg">
<g clip-path="url(#clip0_825_111)">
<path d="M26.5658 6.70401C24.6605 5.8317 22.649 5.21285 20.5829 4.86328C20.3001 5.36871 20.0443 5.88873 19.8165 6.42117C17.6156 6.08952 15.3775 6.08952 13.1766 6.42117C12.9487 5.88879 12.6929 5.36877 12.4102 4.86328C10.3428 5.21581 8.32999 5.83612 6.42274 6.70857C2.63636 12.3106 1.60994 17.7735 2.12315 23.1588C4.34055 24.7971 6.82245 26.0431 9.46097 26.8425C10.0551 26.0435 10.5808 25.1957 11.0325 24.3084C10.1745 23.9879 9.34638 23.5926 8.55771 23.1268C8.76528 22.9763 8.96828 22.8212 9.16444 22.6707C11.4593 23.7499 13.964 24.3094 16.5 24.3094C19.0359 24.3094 21.5407 23.7499 23.8355 22.6707C24.034 22.8326 24.237 22.9877 24.4422 23.1268C23.652 23.5933 22.8224 23.9894 21.9629 24.3107C22.414 25.1976 22.9398 26.0446 23.5344 26.8425C26.1752 26.0463 28.659 24.8009 30.8768 23.1611C31.479 16.9158 29.8481 11.5031 26.5658 6.70401ZM11.6826 19.8468C10.2525 19.8468 9.07092 18.549 9.07092 16.9523C9.07092 15.3557 10.2114 14.0464 11.6781 14.0464C13.1447 14.0464 14.3171 15.3557 14.292 16.9523C14.2669 18.549 13.1401 19.8468 11.6826 19.8468ZM21.3173 19.8468C19.8849 19.8468 18.7079 18.549 18.7079 16.9523C18.7079 15.3557 19.8484 14.0464 21.3173 14.0464C22.7863 14.0464 23.9496 15.3557 23.9245 16.9523C23.8994 18.549 22.7749 19.8468 21.3173 19.8468Z" fill="currentColor"/>
</g>
<defs>
<clipPath id="clip0_825_111">
<rect width="29" height="21.9792" fill="currentColor" transform="translate(2 4.86328)"/>
</clipPath>
</defs>
</svg>
