<svg width="513" height="513" viewBox="0 0 513 513" fill="none" xmlns="http://www.w3.org/2000/svg">
<path d="M339.258 318.255H289.735V465.723C342.255 457.414 389.712 429.61 422.637 387.857C455.562 346.103 471.535 293.471 467.368 240.462C463.201 187.452 439.201 137.962 400.156 101.866C361.112 65.7705 309.893 45.7227 256.72 45.7227C203.547 45.7227 152.328 65.7705 113.284 101.866C74.2391 137.962 50.239 187.452 46.0721 240.462C41.9051 293.471 57.8775 346.103 90.8026 387.857C123.728 429.61 171.185 457.414 223.705 465.723V318.255H169.78V256.626H223.705V207.103C226.639 141.806 269.192 116.861 351.364 132.269V183.992H322.75C301.474 184.726 290.469 195.731 289.735 217.008V256.626H348.612" fill="currentColor"/>
</svg>
