<svg width="512" height="512" viewBox="0 0 512 512" fill="none" xmlns="http://www.w3.org/2000/svg">
<path d="M280.603 255C280.341 226.179 268.747 198.636 248.359 178.397C227.971 158.157 200.448 146.869 171.811 147.001C143.174 147.133 115.756 158.675 95.5527 179.102C75.3499 199.529 64.0078 227.178 64.0078 256C64.0078 284.822 75.3499 312.471 95.5527 332.898C115.756 353.325 143.174 364.867 171.811 364.999C200.448 365.131 227.971 353.843 248.359 333.603C268.747 313.364 280.341 285.821 280.603 257M291.103 257C291.243 284.15 297.04 310.09 307.227 329.148C317.414 348.206 331.162 358.831 345.464 358.699C359.766 358.567 373.459 347.688 383.548 328.443C393.637 309.197 399.301 283.151 399.301 256C399.301 228.849 393.637 202.803 383.548 183.557C373.459 164.312 359.766 153.433 345.464 153.301C331.162 153.169 317.414 163.794 307.227 182.852C297.04 201.91 291.243 227.85 291.103 255M410.003 255C410.058 230.688 412.098 207.469 415.677 190.418C419.256 173.367 424.084 163.869 429.105 164.001C434.127 164.134 438.933 173.884 442.474 191.123C446.015 208.362 448.002 231.687 448.002 256C448.002 280.313 446.015 303.638 442.474 320.877C438.933 338.116 434.127 347.866 429.105 347.999C424.084 348.131 419.256 338.633 415.677 321.582C412.098 304.531 410.058 281.312 410.003 257" fill="currentColor"/>
</svg>
